<svg width="324" height="172" viewBox="0 0 324 172" fill="none" xmlns="http://www.w3.org/2000/svg">
<rect x="0.0876617" y="161.711" width="228" height="13" rx="6.5" transform="rotate(-45 0.0876617 161.711)" fill="white"/>
<rect x="162.192" y="1" width="228" height="13" rx="6.5" transform="rotate(45 162.192 1)" fill="white"/>
<rect x="72" y="19" width="25" height="62" fill="white"/>
<rect x="72" y="78" width="14" height="12" fill="white"/>
<path d="M96.2031 119.516V123.172H84.3281V119.516H96.2031ZM85.7188 110.25V133H81.0312V110.25H85.7188ZM99.5469 110.25V133H94.875V110.25H99.5469ZM122.312 121.094V122.172C122.312 123.901 122.078 125.453 121.609 126.828C121.141 128.203 120.479 129.375 119.625 130.344C118.771 131.302 117.75 132.036 116.562 132.547C115.385 133.057 114.078 133.312 112.641 133.312C111.214 133.312 109.906 133.057 108.719 132.547C107.542 132.036 106.521 131.302 105.656 130.344C104.792 129.375 104.12 128.203 103.641 126.828C103.172 125.453 102.938 123.901 102.938 122.172V121.094C102.938 119.354 103.172 117.802 103.641 116.438C104.109 115.062 104.771 113.891 105.625 112.922C106.49 111.953 107.51 111.214 108.688 110.703C109.875 110.193 111.182 109.938 112.609 109.938C114.047 109.938 115.354 110.193 116.531 110.703C117.719 111.214 118.74 111.953 119.594 112.922C120.458 113.891 121.125 115.062 121.594 116.438C122.073 117.802 122.312 119.354 122.312 121.094ZM117.578 122.172V121.062C117.578 119.854 117.469 118.792 117.25 117.875C117.031 116.958 116.708 116.188 116.281 115.562C115.854 114.938 115.333 114.469 114.719 114.156C114.104 113.833 113.401 113.672 112.609 113.672C111.818 113.672 111.115 113.833 110.5 114.156C109.896 114.469 109.38 114.938 108.953 115.562C108.536 116.188 108.219 116.958 108 117.875C107.781 118.792 107.672 119.854 107.672 121.062V122.172C107.672 123.37 107.781 124.432 108 125.359C108.219 126.276 108.542 127.052 108.969 127.688C109.396 128.312 109.917 128.786 110.531 129.109C111.146 129.432 111.849 129.594 112.641 129.594C113.432 129.594 114.135 129.432 114.75 129.109C115.365 128.786 115.88 128.312 116.297 127.688C116.714 127.052 117.031 126.276 117.25 125.359C117.469 124.432 117.578 123.37 117.578 122.172ZM138.25 110.25H142.922V125.281C142.922 127.031 142.547 128.505 141.797 129.703C141.057 130.901 140.031 131.802 138.719 132.406C137.417 133.01 135.917 133.312 134.219 133.312C132.521 133.312 131.01 133.01 129.688 132.406C128.375 131.802 127.344 130.901 126.594 129.703C125.854 128.505 125.484 127.031 125.484 125.281V110.25H130.172V125.281C130.172 126.302 130.333 127.135 130.656 127.781C130.979 128.427 131.443 128.901 132.047 129.203C132.661 129.505 133.385 129.656 134.219 129.656C135.073 129.656 135.797 129.505 136.391 129.203C136.995 128.901 137.453 128.427 137.766 127.781C138.089 127.135 138.25 126.302 138.25 125.281V110.25ZM158.625 127.047C158.625 126.641 158.562 126.276 158.438 125.953C158.323 125.62 158.104 125.318 157.781 125.047C157.458 124.766 157.005 124.49 156.422 124.219C155.839 123.948 155.083 123.667 154.156 123.375C153.125 123.042 152.146 122.667 151.219 122.25C150.302 121.833 149.49 121.349 148.781 120.797C148.083 120.234 147.531 119.583 147.125 118.844C146.729 118.104 146.531 117.245 146.531 116.266C146.531 115.318 146.74 114.458 147.156 113.688C147.573 112.906 148.156 112.24 148.906 111.688C149.656 111.125 150.542 110.693 151.562 110.391C152.594 110.089 153.724 109.938 154.953 109.938C156.63 109.938 158.094 110.24 159.344 110.844C160.594 111.448 161.562 112.276 162.25 113.328C162.948 114.38 163.297 115.583 163.297 116.938H158.641C158.641 116.271 158.5 115.688 158.219 115.188C157.948 114.677 157.531 114.276 156.969 113.984C156.417 113.693 155.719 113.547 154.875 113.547C154.062 113.547 153.385 113.672 152.844 113.922C152.302 114.161 151.896 114.49 151.625 114.906C151.354 115.312 151.219 115.771 151.219 116.281C151.219 116.667 151.312 117.016 151.5 117.328C151.698 117.641 151.99 117.932 152.375 118.203C152.76 118.474 153.234 118.729 153.797 118.969C154.359 119.208 155.01 119.443 155.75 119.672C156.99 120.047 158.078 120.469 159.016 120.938C159.964 121.406 160.755 121.932 161.391 122.516C162.026 123.099 162.505 123.76 162.828 124.5C163.151 125.24 163.312 126.078 163.312 127.016C163.312 128.005 163.12 128.891 162.734 129.672C162.349 130.453 161.792 131.115 161.062 131.656C160.333 132.198 159.464 132.609 158.453 132.891C157.443 133.172 156.312 133.312 155.062 133.312C153.938 133.312 152.828 133.167 151.734 132.875C150.641 132.573 149.646 132.12 148.75 131.516C147.865 130.911 147.156 130.141 146.625 129.203C146.094 128.266 145.828 127.156 145.828 125.875H150.531C150.531 126.583 150.641 127.182 150.859 127.672C151.078 128.161 151.385 128.557 151.781 128.859C152.188 129.161 152.667 129.38 153.219 129.516C153.781 129.651 154.396 129.719 155.062 129.719C155.875 129.719 156.542 129.604 157.062 129.375C157.594 129.146 157.984 128.828 158.234 128.422C158.495 128.016 158.625 127.557 158.625 127.047ZM181.766 129.344V133H169.656V129.344H181.766ZM171.188 110.25V133H166.5V110.25H171.188ZM180.188 119.516V123.078H169.656V119.516H180.188ZM181.75 110.25V113.922H169.656V110.25H181.75Z" fill="white"/>
<path d="M150.875 157.047C150.875 156.641 150.812 156.276 150.688 155.953C150.573 155.62 150.354 155.318 150.031 155.047C149.708 154.766 149.255 154.49 148.672 154.219C148.089 153.948 147.333 153.667 146.406 153.375C145.375 153.042 144.396 152.667 143.469 152.25C142.552 151.833 141.74 151.349 141.031 150.797C140.333 150.234 139.781 149.583 139.375 148.844C138.979 148.104 138.781 147.245 138.781 146.266C138.781 145.318 138.99 144.458 139.406 143.687C139.823 142.906 140.406 142.24 141.156 141.687C141.906 141.125 142.792 140.693 143.812 140.391C144.844 140.089 145.974 139.937 147.203 139.937C148.88 139.937 150.344 140.24 151.594 140.844C152.844 141.448 153.812 142.276 154.5 143.328C155.198 144.38 155.547 145.583 155.547 146.937H150.891C150.891 146.271 150.75 145.687 150.469 145.187C150.198 144.677 149.781 144.276 149.219 143.984C148.667 143.693 147.969 143.547 147.125 143.547C146.312 143.547 145.635 143.672 145.094 143.922C144.552 144.161 144.146 144.49 143.875 144.906C143.604 145.312 143.469 145.771 143.469 146.281C143.469 146.667 143.562 147.016 143.75 147.328C143.948 147.641 144.24 147.932 144.625 148.203C145.01 148.474 145.484 148.729 146.047 148.969C146.609 149.208 147.26 149.443 148 149.672C149.24 150.047 150.328 150.469 151.266 150.937C152.214 151.406 153.005 151.932 153.641 152.516C154.276 153.099 154.755 153.76 155.078 154.5C155.401 155.24 155.562 156.078 155.562 157.016C155.562 158.005 155.37 158.891 154.984 159.672C154.599 160.453 154.042 161.115 153.312 161.656C152.583 162.198 151.714 162.609 150.703 162.891C149.693 163.172 148.562 163.312 147.312 163.312C146.188 163.312 145.078 163.167 143.984 162.875C142.891 162.573 141.896 162.12 141 161.516C140.115 160.911 139.406 160.141 138.875 159.203C138.344 158.266 138.078 157.156 138.078 155.875H142.781C142.781 156.583 142.891 157.182 143.109 157.672C143.328 158.161 143.635 158.557 144.031 158.859C144.438 159.161 144.917 159.38 145.469 159.516C146.031 159.651 146.646 159.719 147.312 159.719C148.125 159.719 148.792 159.604 149.312 159.375C149.844 159.146 150.234 158.828 150.484 158.422C150.745 158.016 150.875 157.557 150.875 157.047ZM173.922 149.516V153.172H162.047V149.516H173.922ZM163.438 140.25V163H158.75V140.25H163.438ZM177.266 140.25V163H172.594V140.25H177.266ZM190.875 144.141L184.688 163H179.703L188.156 140.25H191.328L190.875 144.141ZM196.016 163L189.812 144.141L189.312 140.25H192.516L201.016 163H196.016ZM195.734 154.531V158.203H183.719V154.531H195.734ZM203.125 140.25H211.609C213.349 140.25 214.844 140.51 216.094 141.031C217.354 141.552 218.323 142.323 219 143.344C219.677 144.365 220.016 145.62 220.016 147.109C220.016 148.328 219.807 149.375 219.391 150.25C218.984 151.115 218.406 151.839 217.656 152.422C216.917 152.995 216.047 153.453 215.047 153.797L213.562 154.578H206.188L206.156 150.922H211.641C212.464 150.922 213.146 150.776 213.688 150.484C214.229 150.193 214.635 149.786 214.906 149.266C215.188 148.745 215.328 148.141 215.328 147.453C215.328 146.724 215.193 146.094 214.922 145.562C214.651 145.031 214.24 144.625 213.688 144.344C213.135 144.062 212.443 143.922 211.609 143.922H207.812V163H203.125V140.25ZM215.844 163L210.656 152.859L215.609 152.828L220.859 162.781V163H215.844ZM228.609 140.25V163H223.938V140.25H228.609ZM251.516 140.25V163H246.828L237.688 147.75V163H233V140.25H237.688L246.844 155.516V140.25H251.516ZM273.625 151.109V160.125C273.271 160.552 272.724 161.016 271.984 161.516C271.245 162.005 270.292 162.427 269.125 162.781C267.958 163.135 266.547 163.312 264.891 163.312C263.422 163.312 262.083 163.073 260.875 162.594C259.667 162.104 258.625 161.391 257.75 160.453C256.885 159.516 256.219 158.37 255.75 157.016C255.281 155.651 255.047 154.094 255.047 152.344V150.922C255.047 149.172 255.271 147.615 255.719 146.25C256.177 144.885 256.828 143.734 257.672 142.797C258.516 141.859 259.521 141.146 260.688 140.656C261.854 140.167 263.151 139.922 264.578 139.922C266.557 139.922 268.182 140.245 269.453 140.891C270.724 141.526 271.693 142.411 272.359 143.547C273.036 144.672 273.453 145.964 273.609 147.422H269.062C268.948 146.651 268.729 145.979 268.406 145.406C268.083 144.833 267.62 144.385 267.016 144.062C266.422 143.74 265.651 143.578 264.703 143.578C263.922 143.578 263.224 143.74 262.609 144.062C262.005 144.375 261.495 144.839 261.078 145.453C260.661 146.068 260.344 146.828 260.125 147.734C259.906 148.641 259.797 149.693 259.797 150.891V152.344C259.797 153.531 259.911 154.583 260.141 155.5C260.37 156.406 260.708 157.172 261.156 157.797C261.615 158.411 262.177 158.875 262.844 159.187C263.51 159.5 264.286 159.656 265.172 159.656C265.911 159.656 266.526 159.594 267.016 159.469C267.516 159.344 267.917 159.193 268.219 159.016C268.531 158.828 268.771 158.651 268.938 158.484V154.453H264.656V151.109H273.625Z" fill="white"/>
</svg>
