<svg width="244" height="244" viewBox="0 0 244 244" fill="none" xmlns="http://www.w3.org/2000/svg">
<path d="M122 0.0800018C86.7854 0.0800018 53.5724 15.2844 30.56 41.3601V10.24H20.4V61.04H71.2V50.88H35.8534C57.0014 25.292 88.4974 10.24 122 10.24C183.625 10.24 233.76 60.3745 233.76 122C233.76 183.625 183.625 233.76 122 233.76C60.3745 233.76 10.24 183.625 10.24 122C10.24 108.624 12.5768 95.5434 17.1844 83.1278L7.65936 79.5922C2.63016 93.1456 0.0799999 107.41 0.0799999 122C0.0799999 189.224 54.7764 243.92 122 243.92C189.224 243.92 243.92 189.224 243.92 122C243.92 54.7764 189.224 0.0800018 122 0.0800018Z" fill="white"/>
<path d="M165.333 103.254V71.4309C165.333 48.0405 145.9 29 122 29C98.1069 29 78.6671 48.0405 78.6671 71.4309V103.254C66.7006 103.254 57 112.754 57 124.468V177.506C57 189.224 66.7006 198.722 78.6671 198.722H165.333C177.297 198.722 187 189.224 187 177.506V124.468C187 112.753 177.297 103.254 165.333 103.254ZM127.417 154.664V172.203C127.417 175.134 124.995 177.506 122 177.506C119.006 177.506 116.583 175.134 116.583 172.203V154.664C113.404 152.821 111.167 149.568 111.167 145.684C111.167 139.82 116.018 135.076 122 135.076C127.982 135.076 132.833 139.82 132.833 145.684C132.834 149.568 130.595 152.822 127.417 154.664ZM143.666 103.254H100.334V71.4309C100.334 59.7252 110.05 50.2151 122 50.2151C133.944 50.2151 143.665 59.7252 143.665 71.4309V103.254H143.666Z" fill="white"/>
</svg>
